<svg xmlns="http://www.w3.org/2000/svg" width="31.696" height="35.541" viewBox="0 0 31.696 35.541">
  <defs>
    <style>
      .cls-1 {
        fill: #93a5ff;
      }
    </style>
  </defs>
  <g id="_002-globe" data-name="002-globe" transform="translate(0)">
    <g id="Group_9" data-name="Group 9" transform="translate(0 0)">
      <g id="Group_8" data-name="Group 8">
        <path id="Path_18" data-name="Path 18" class="cls-1" d="M421.977,238.934h-2.563a1.281,1.281,0,1,0,0,2.563h2.563a1.281,1.281,0,0,0,0-2.563Z" transform="translate(-391.562 -236.378)"/>
        <path id="Path_19" data-name="Path 19" class="cls-1" d="M370.777,238.934h-2.563a1.281,1.281,0,0,0,0,2.563h2.563a1.281,1.281,0,1,0,0-2.563Z" transform="translate(-346.752 -236.378)"/>
        <path id="Path_20" data-name="Path 20" class="cls-1" d="M225.711,221.867a3.844,3.844,0,1,0,3.844,3.844A3.844,3.844,0,0,0,225.711,221.867Zm0,5.125a1.281,1.281,0,1,1,1.281-1.281A1.281,1.281,0,0,1,225.711,226.992Z" transform="translate(-221.867 -221.867)"/>
        <path id="Path_21" data-name="Path 21" class="cls-1" d="M421.977,341.334h-2.563a1.281,1.281,0,1,0,0,2.563h2.563a1.281,1.281,0,0,0,0-2.563Z" transform="translate(-391.562 -324.559)"/>
        <path id="Path_22" data-name="Path 22" class="cls-1" d="M370.777,341.334h-2.563a1.281,1.281,0,0,0,0,2.563h2.563a1.281,1.281,0,1,0,0-2.563Z" transform="translate(-346.752 -324.559)"/>
        <path id="Path_23" data-name="Path 23" class="cls-1" d="M225.711,324.267a3.844,3.844,0,1,0,3.844,3.844A3.844,3.844,0,0,0,225.711,324.267Zm0,5.125a1.281,1.281,0,1,1,1.281-1.281A1.281,1.281,0,0,1,225.711,329.392Z" transform="translate(-221.867 -310.134)"/>
        <path id="Path_24" data-name="Path 24" class="cls-1" d="M421.977,443.734h-2.563a1.281,1.281,0,1,0,0,2.563h2.563a1.281,1.281,0,0,0,0-2.563Z" transform="translate(-391.562 -413.319)"/>
        <path id="Path_25" data-name="Path 25" class="cls-1" d="M370.777,443.734h-2.563a1.281,1.281,0,0,0,0,2.563h2.563a1.281,1.281,0,1,0,0-2.563Z" transform="translate(-346.752 -413.319)"/>
        <path id="Path_26" data-name="Path 26" class="cls-1" d="M225.711,426.667a3.844,3.844,0,1,0,3.844,3.844A3.844,3.844,0,0,0,225.711,426.667Zm0,5.125a1.281,1.281,0,1,1,1.281-1.281A1.281,1.281,0,0,1,225.711,431.792Z" transform="translate(-221.867 -398.814)"/>
      </g>
    </g>
  </g>
</svg>
