<svg xmlns="http://www.w3.org/2000/svg" xmlns:xlink="http://www.w3.org/1999/xlink" width="475" height="70.291" viewBox="0 0 475 70.291">
  <defs>
    <clipPath id="clip-path">
      <path id="Path_130" data-name="Path 130" d="M-175.537-121.139H-46.869v-41.8H-175.537Z" transform="translate(175.537 162.936)" fill="#93a5ff"/>
    </clipPath>
  </defs>
  <g id="Group_107" data-name="Group 107" transform="translate(-1124 -4832.441)">
    <g id="Group_103" data-name="Group 103" transform="translate(-14 -7)">
      <rect id="Rectangle_90" data-name="Rectangle 90" width="87" height="49" rx="5" transform="translate(1138 4850)" fill="#2d355d"/>
      <g id="visa" transform="translate(1145.441 4839.441)">
        <g id="Group_101" data-name="Group 101" transform="translate(5.567 25.55)">
          <path id="Path_112" data-name="Path 112" d="M36.871,70.391H32.044L35.06,51.85h4.827ZM27.983,51.85,23.381,64.6l-.545-2.746h0L21.213,53.52a2.066,2.066,0,0,0-2.29-1.669H11.315l-.089.314a18.058,18.058,0,0,1,5.049,2.119l4.194,16.108H25.5l7.68-18.541H27.983ZM65.95,70.391h4.432L66.517,51.85h-3.88a2.218,2.218,0,0,0-2.228,1.382l-7.2,17.159h5.032l1.006-2.754h6.136Zm-5.312-6.558,2.536-6.938L64.6,63.832Zm-7.051-7.523.689-3.981a13.933,13.933,0,0,0-4.341-.808c-2.4,0-8.084,1.047-8.084,6.138,0,4.79,6.676,4.849,6.676,7.365s-5.988,2.065-7.965.479l-.718,4.163a13.527,13.527,0,0,0,5.448,1.047c3.294,0,8.263-1.706,8.263-6.348,0-4.821-6.736-5.269-6.736-7.365s4.7-1.827,6.767-.689Z" transform="translate(-11.226 -51.519)" fill="#93a5ff"/>
        </g>
        <path id="Path_113" data-name="Path 113" d="M22.837,62.193l-1.624-8.338a2.066,2.066,0,0,0-2.29-1.669H11.315l-.089.314a18.7,18.7,0,0,1,7.164,3.6A14.457,14.457,0,0,1,22.837,62.193Z" transform="translate(-5.659 -26.305)" fill="#fff"/>
        <path id="Path_114" data-name="Path 114" d="M0,0H70.291V70.291H0Z" fill="none"/>
      </g>
    </g>
    <g id="Group_105" data-name="Group 105">
      <rect id="Rectangle_91" data-name="Rectangle 91" width="87" height="49" rx="5" transform="translate(1221 4843)" fill="#2d355d"/>
      <g id="mastercard-2" transform="translate(1245.888 4852.646)">
        <path id="Path_115" data-name="Path 115" d="M138.589,1321.208v.076h.07a.075.075,0,0,0,.038-.01.034.034,0,0,0,.014-.029.032.032,0,0,0-.014-.028.068.068,0,0,0-.038-.01h-.07Zm.071-.053a.13.13,0,0,1,.085.025.081.081,0,0,1,.03.067.077.077,0,0,1-.024.059.116.116,0,0,1-.068.028l.094.108H138.7l-.087-.107h-.028v.107h-.061v-.286h.132Zm-.019.384a.226.226,0,0,0,.093-.019.241.241,0,0,0,.075-.051.236.236,0,0,0,.051-.075.238.238,0,0,0-.051-.262.241.241,0,0,0-.075-.051.236.236,0,0,0-.093-.018.247.247,0,0,0-.094.018.239.239,0,0,0-.077.051.243.243,0,0,0-.05.264.223.223,0,0,0,.05.075.245.245,0,0,0,.077.051.236.236,0,0,0,.094.019m0-.547a.316.316,0,0,1,.222.091.3.3,0,0,1,.067.336.32.32,0,0,1-.067.1.339.339,0,0,1-.1.066.309.309,0,0,1-.122.024.314.314,0,0,1-.124-.024.295.295,0,0,1-.166-.167.3.3,0,0,1,.067-.336.3.3,0,0,1,.1-.066.319.319,0,0,1,.124-.025m-28.884-1.1a.937.937,0,1,1,.939.991.929.929,0,0,1-.939-.991m2.506,0v-1.549h-.673v.377a1.174,1.174,0,0,0-.978-.454,1.628,1.628,0,0,0,0,3.252,1.174,1.174,0,0,0,.978-.454v.376h.672v-1.549Zm22.747,0a.938.938,0,1,1,.939.991.929.929,0,0,1-.939-.991m2.507,0V1317.1h-.674v1.62a1.174,1.174,0,0,0-.978-.454,1.628,1.628,0,0,0,0,3.252,1.174,1.174,0,0,0,.978-.454v.376h.674Zm-16.9-1.023a.769.769,0,0,1,.784.751H119.8a.8.8,0,0,1,.823-.751m.013-.6a1.627,1.627,0,0,0,.045,3.252,1.88,1.88,0,0,0,1.269-.434l-.33-.5a1.477,1.477,0,0,1-.9.324.86.86,0,0,1-.926-.758h2.3c.007-.084.013-.168.013-.259a1.485,1.485,0,0,0-1.47-1.626m8.128,1.626a.937.937,0,1,1,.939.991.929.929,0,0,1-.939-.991m2.507,0v-1.548H130.6v.377a1.175,1.175,0,0,0-.978-.454,1.628,1.628,0,0,0,0,3.252,1.175,1.175,0,0,0,.978-.454v.376h.673v-1.549Zm-6.308,0a1.564,1.564,0,0,0,1.652,1.626,1.619,1.619,0,0,0,1.113-.369l-.323-.544a1.362,1.362,0,0,1-.811.279.993.993,0,0,1,0-1.983,1.364,1.364,0,0,1,.811.279l.323-.544a1.62,1.62,0,0,0-1.113-.369,1.564,1.564,0,0,0-1.652,1.626m8.679-1.626a.914.914,0,0,0-.816.454v-.375h-.667v3.1h.674V1319.7c0-.512.22-.8.66-.8a1.093,1.093,0,0,1,.421.078l.207-.635a1.433,1.433,0,0,0-.48-.084m-18.045.324a2.315,2.315,0,0,0-1.262-.324c-.784,0-1.289.376-1.289.991,0,.5.376.816,1.068.913l.318.045c.369.052.543.149.543.324,0,.239-.245.376-.706.376a1.65,1.65,0,0,1-1.03-.324l-.316.525a2.233,2.233,0,0,0,1.34.4c.894,0,1.412-.421,1.412-1.01,0-.544-.408-.829-1.082-.926l-.317-.046c-.291-.038-.525-.1-.525-.3,0-.226.22-.363.589-.363a2,2,0,0,1,.965.266l.291-.544Zm8.687-.323a.912.912,0,0,0-.815.454v-.376H122.8v3.1h.673V1319.7c0-.512.22-.8.66-.8a1.092,1.092,0,0,1,.421.078l.207-.635a1.433,1.433,0,0,0-.48-.084m-5.744.078h-1.1v-.939h-.681v.939h-.628v.615h.628v1.412c0,.718.279,1.146,1.075,1.146a1.581,1.581,0,0,0,.842-.239l-.194-.577a1.245,1.245,0,0,1-.6.175c-.337,0-.446-.207-.446-.518v-1.4h1.1Zm-10.065,3.1V1319.5a1.153,1.153,0,0,0-1.218-1.231,1.2,1.2,0,0,0-1.088.551,1.136,1.136,0,0,0-1.023-.551,1.024,1.024,0,0,0-.907.46v-.383h-.674v3.1h.679v-1.717a.725.725,0,0,1,.758-.823c.447,0,.673.291.673.816v1.723h.681v-1.716a.73.73,0,0,1,.758-.823c.46,0,.679.292.679.816v1.723Z" transform="translate(-101.607 -1292.256)" fill="#fff"/>
        <path id="Path_116" data-name="Path 116" d="M1929.833,977.673v-.453h-.118l-.136.311-.135-.311h-.118v.453h.084v-.341l.127.294h.087l.128-.295v.342h.083Zm-.748,0V977.3h.151v-.076h-.386v.076H1929v.375h.083Z" transform="translate(-1892.466 -958.787)" fill="#f79410"/>
        <path id="Path_117" data-name="Path 117" d="M739.912,150.485h-10.2V132.15h10.2Z" transform="translate(-715.946 -129.658)" fill="#cfd6fe"/>
        <path id="Path_118" data-name="Path 118" d="M14.411,11.66a11.641,11.641,0,0,1,4.453-9.167,11.66,11.66,0,1,0,0,18.335,11.641,11.641,0,0,1-4.453-9.167" transform="translate(0 0)" fill="#93a5ff"/>
        <path id="Path_119" data-name="Path 119" d="M1018.976,11.66a11.66,11.66,0,0,1-18.865,9.167,11.661,11.661,0,0,0,0-18.335,11.66,11.66,0,0,1,18.865,9.167" transform="translate(-981.245 0)" fill="#f7f8ff"/>
      </g>
    </g>
    <rect id="Rectangle_93" data-name="Rectangle 93" width="87" height="49" rx="5" transform="translate(1415 4843)" fill="#2d355d"/>
    <g id="paypal" transform="translate(1569.537 5009.096)">
      <g id="Group_102" data-name="Group 102" transform="translate(-175.537 -162.936)" clip-path="url(#clip-path)">
        <path id="Path_120" data-name="Path 120" d="M23.45-89.695a4.4,4.4,0,0,0-3.382-1.076H15.634a.635.635,0,0,0-.627.536L13.161-78.526a.38.38,0,0,0,.087.306.38.38,0,0,0,.289.133h2.737l.687-4.36-.021.137a.633.633,0,0,1,.625-.536h1.3c2.555,0,4.556-1.038,5.14-4.04q.026-.133.045-.26a2.835,2.835,0,0,0-.6-2.549" transform="translate(22.699 104.484)" fill="#003087"/>
        <path id="Path_121" data-name="Path 121" d="M222.037-68.008c-.167,1.1-1.006,1.1-1.818,1.1h-.462l.324-2.051a.255.255,0,0,1,.252-.215h.212c.552,0,1.074,0,1.343.315a1.023,1.023,0,0,1,.148.853m-.353-2.867h-3.061a.426.426,0,0,0-.421.359l-1.237,7.848a.255.255,0,0,0,.058.205.255.255,0,0,0,.194.09h1.571a.3.3,0,0,0,.294-.251l.351-2.226a.425.425,0,0,1,.42-.359h.968a3.143,3.143,0,0,0,3.484-2.909,2.357,2.357,0,0,0-.39-1.975,2.839,2.839,0,0,0-2.231-.782" transform="translate(-142.379 88.369)" fill="#f7f8ff"/>
        <path id="Path_122" data-name="Path 122" d="M107.151-68.008c-.167,1.1-1.006,1.1-1.818,1.1h-.462l.324-2.051a.255.255,0,0,1,.252-.215h.212c.552,0,1.074,0,1.343.315a1.021,1.021,0,0,1,.149.853m-.353-2.867h-3.061a.426.426,0,0,0-.42.359l-1.237,7.848a.255.255,0,0,0,.058.205.255.255,0,0,0,.194.089h1.462a.425.425,0,0,0,.42-.359l.334-2.117a.425.425,0,0,1,.42-.359h.968a3.143,3.143,0,0,0,3.484-2.91,2.357,2.357,0,0,0-.39-1.975,2.839,2.839,0,0,0-2.231-.782m7.106,5.685a1.634,1.634,0,0,1-1.654,1.4,1.237,1.237,0,0,1-.984-.4,1.244,1.244,0,0,1-.23-1.029,1.64,1.64,0,0,1,1.642-1.41,1.235,1.235,0,0,1,.977.4,1.262,1.262,0,0,1,.249,1.036m2.043-2.853h-1.466a.255.255,0,0,0-.253.216l-.064.41-.1-.148a2.086,2.086,0,0,0-1.731-.615,3.37,3.37,0,0,0-3.271,2.948,2.767,2.767,0,0,0,.546,2.252,2.293,2.293,0,0,0,1.846.745,2.806,2.806,0,0,0,2.029-.838l-.066.407a.255.255,0,0,0,.058.206.255.255,0,0,0,.194.089h1.32a.425.425,0,0,0,.42-.359l.792-5.017a.255.255,0,0,0-.058-.206.255.255,0,0,0-.194-.089" transform="translate(-49.324 88.369)" fill="#93a5ff"/>
        <path id="Path_123" data-name="Path 123" d="M258.366-53.709a1.635,1.635,0,0,1-1.654,1.4,1.237,1.237,0,0,1-.984-.4,1.244,1.244,0,0,1-.23-1.029,1.64,1.64,0,0,1,1.642-1.41,1.235,1.235,0,0,1,.977.4,1.262,1.262,0,0,1,.249,1.036m2.043-2.853h-1.466a.255.255,0,0,0-.253.216l-.064.41-.1-.148a2.086,2.086,0,0,0-1.731-.615,3.371,3.371,0,0,0-3.272,2.948,2.767,2.767,0,0,0,.546,2.252,2.293,2.293,0,0,0,1.846.745,2.807,2.807,0,0,0,2.03-.838l-.066.407a.254.254,0,0,0,.057.206.254.254,0,0,0,.194.089h1.319a.426.426,0,0,0,.421-.359l.792-5.017a.255.255,0,0,0-.058-.206.255.255,0,0,0-.194-.089" transform="translate(-171.955 76.887)" fill="#f7f8ff"/>
        <path id="Path_124" data-name="Path 124" d="M187.038-55.974h-1.474a.424.424,0,0,0-.351.187l-2.032,2.993-.861-2.876a.426.426,0,0,0-.408-.3h-1.448a.255.255,0,0,0-.208.107.255.255,0,0,0-.034.231l1.622,4.762-1.526,2.153a.255.255,0,0,0-.018.265.255.255,0,0,0,.226.138H182a.426.426,0,0,0,.349-.183l4.9-7.071a.255.255,0,0,0,.017-.264.255.255,0,0,0-.226-.137" transform="translate(-112.609 76.3)" fill="#93a5ff"/>
        <path id="Path_125" data-name="Path 125" d="M293.675-70.657l-1.257,7.992a.255.255,0,0,0,.058.205.255.255,0,0,0,.194.089h1.263a.426.426,0,0,0,.42-.359l1.239-7.848a.255.255,0,0,0-.058-.206.255.255,0,0,0-.194-.089h-1.414a.255.255,0,0,0-.252.215" transform="translate(-203.494 88.367)" fill="#f7f8ff"/>
        <path id="Path_126" data-name="Path 126" d="M23.45-89.695a4.4,4.4,0,0,0-3.382-1.076H15.634a.635.635,0,0,0-.627.536L13.161-78.526a.38.38,0,0,0,.087.306.38.38,0,0,0,.289.133h2.737l.687-4.36-.021.137a.633.633,0,0,1,.625-.536h1.3c2.555,0,4.556-1.038,5.14-4.04q.026-.133.045-.26a2.835,2.835,0,0,0-.6-2.549" transform="translate(22.699 104.484)" fill="#003087"/>
        <path id="Path_127" data-name="Path 127" d="M17.7-87.129a.556.556,0,0,1,.548-.468h3.476a7.307,7.307,0,0,1,1.146.083,4.816,4.816,0,0,1,.568.127,3.14,3.14,0,0,1,.612.244,2.834,2.834,0,0,0-.6-2.549,4.407,4.407,0,0,0-3.382-1.075H15.632a.635.635,0,0,0-.627.536L13.159-78.525a.38.38,0,0,0,.086.307.38.38,0,0,0,.289.133h2.738l.687-4.361Z" transform="translate(22.701 104.482)" fill="#93a5ff"/>
        <path id="Path_128" data-name="Path 128" d="M36.515-71.7q-.02.13-.045.26c-.584,3-2.585,4.04-5.14,4.04h-1.3a.632.632,0,0,0-.624.536l-.666,4.223-.189,1.2a.333.333,0,0,0,.076.268.333.333,0,0,0,.253.117h2.307a.555.555,0,0,0,.548-.468l.022-.118L32.19-64.4l.028-.152a.555.555,0,0,1,.549-.468h.345c2.235,0,3.985-.908,4.5-3.534a3.013,3.013,0,0,0-.462-2.657,2.2,2.2,0,0,0-.632-.487" transform="translate(10.236 89.033)" fill="#f7f8ff"/>
        <path id="Path_129" data-name="Path 129" d="M39.567-73.874q-.134-.04-.276-.071C39.2-73.966,39.1-73.984,39-74a7.166,7.166,0,0,0-1.147-.084H34.376a.554.554,0,0,0-.548.469l-.739,4.684-.021.136a.632.632,0,0,1,.624-.536h1.3c2.555,0,4.556-1.038,5.14-4.04.017-.089.032-.175.045-.26a3.156,3.156,0,0,0-.481-.2l-.131-.041" transform="translate(6.572 90.968)" fill="#cfd6fe"/>
      </g>
    </g>
    <g id="Group_104" data-name="Group 104">
      <rect id="Rectangle_92" data-name="Rectangle 92" width="87" height="49" rx="5" transform="translate(1318 4843)" fill="#2d355d"/>
      <g id="union-pay" transform="translate(1339.953 4853.759)">
        <path id="Path_131" data-name="Path 131" d="M168.077.462l-10.634,0h-.027a4.069,4.069,0,0,0-3.612,2.661l-5.029,22.251a2.059,2.059,0,0,0,2.02,2.667h11.171a3.555,3.555,0,0,0,3.142-2.657l5.029-22.252A2.062,2.062,0,0,0,168.077.462" transform="translate(-126.679 -0.032)" fill="#424d83"/>
        <path id="Path_132" data-name="Path 132" d="M79.394,25.357,84.423,3.105A4.069,4.069,0,0,1,88.034.444l-4.228,0H76.189a4.068,4.068,0,0,0-3.639,2.665l-5.03,22.251a2.059,2.059,0,0,0,2.019,2.667H81.414a2.059,2.059,0,0,1-2.02-2.667" transform="translate(-57.297 -0.015)" fill="#7387e7"/>
        <path id="Path_133" data-name="Path 133" d="M10.222,25.341,15.253,3.09A4.068,4.068,0,0,1,18.892.424l-9.758,0a4.074,4.074,0,0,0-3.7,2.668L.4,25.341a2.79,2.79,0,0,0-.058.4v.413a2.012,2.012,0,0,0,2.077,1.855h9.818a2.059,2.059,0,0,1-2.019-2.666" transform="translate(0)" fill="#93a5ff"/>
        <path id="Path_134" data-name="Path 134" d="M49.468,57.913h.185a.337.337,0,0,0,.337-.17l.48-.718h1.285l-.268.472h1.541l-.2.724H51a.858.858,0,0,1-.784.449H49.26l.208-.757m-.211,1.037h3.376l-.215.786H51.06l-.207.759h1.321l-.215.786H50.637L50.331,62.4c-.076.187.024.272.3.253h1.077l-.2.731H49.439q-.588,0-.4-.674l.392-1.431h-.844l.215-.786h.845l.207-.759h-.807Zm5.388-1.931-.053.46A2.475,2.475,0,0,1,55.807,57h2.137l-.817,2.958q-.1.507-.872.506H53.833l-.567,2.077c-.033.111.013.168.136.168h.477l-.175.645H52.491q-.7,0-.582-.421l1.6-5.917h1.133Zm1.81.836H54.547l-.228.8a1.586,1.586,0,0,1,.849-.237c.529-.008,1.134,0,1.134,0Zm-.691,1.852c.141.019.22-.037.229-.168l.117-.421H54.2l-.16.589Zm-1.288.956h1.1l-.021.477h.293c.148,0,.222-.047.222-.141l.087-.308h.915l-.122.449a.79.79,0,0,1-.823.589h-.587l0,.814c-.011.131.107.2.35.2h.551l-.178.645H54.939c-.371.018-.553-.159-.549-.534l.084-2.189M41.131,53.078A2.692,2.692,0,0,1,40.1,54.771a3.382,3.382,0,0,1-2.059.589,2.255,2.255,0,0,1-1.741-.6,1.573,1.573,0,0,1-.384-1.09,2.916,2.916,0,0,1,.065-.588l.9-4.317h1.352l-.883,4.268a1.373,1.373,0,0,0-.037.327.835.835,0,0,0,.163.538.925.925,0,0,0,.782.311,1.633,1.633,0,0,0,1.025-.307,1.41,1.41,0,0,0,.518-.869l.886-4.269h1.345l-.9,4.318m5.679-1.7H47.87l-.83,3.853H45.983l.828-3.853m.333-1.4h1.069l-.2.935H46.945l.2-.935m1.663,4.964a1.422,1.422,0,0,1-.418-1.075A2.471,2.471,0,0,1,48.4,53.6c.01-.1.023-.193.041-.281a2.613,2.613,0,0,1,.805-1.489,2.156,2.156,0,0,1,1.489-.553,1.562,1.562,0,0,1,1.13.4,1.442,1.442,0,0,1,.415,1.088,2.637,2.637,0,0,1-.016.267q-.018.145-.044.288a2.54,2.54,0,0,1-.8,1.468,2.171,2.171,0,0,1-1.484.543,1.574,1.574,0,0,1-1.13-.392m2.018-.763a1.879,1.879,0,0,0,.4-.918c.012-.064.023-.13.03-.2a1.778,1.778,0,0,0,.009-.182.781.781,0,0,0-.182-.553.663.663,0,0,0-.514-.2.926.926,0,0,0-.72.31,1.94,1.94,0,0,0-.407.934c-.012.064-.021.128-.03.19a1.382,1.382,0,0,0-.007.178.766.766,0,0,0,.182.547.671.671,0,0,0,.517.193.932.932,0,0,0,.72-.306" transform="translate(-30.37 -41.274)" fill="#fff"/>
        <path id="Path_135" data-name="Path 135" d="M183.623.451h-4.252l4.228,0h.024" transform="translate(-152.862 -0.024)" fill="#e02f41"/>
        <path id="Path_136" data-name="Path 136" d="M134.863.426l-7.559,0-.058,0h7.617" transform="translate(-108.354)" fill="#2e4f7d"/>
        <path id="Path_137" data-name="Path 137" d="M92.409,59.278l.255-.9h1.291l-.056.33a3.244,3.244,0,0,1,1.135-.33h1.6l-.254.9h-.251l-1.2,4.239h.251l-.239.842h-.251l-.1.365H93.328l.1-.365H90.965l.24-.842h.247l1.205-4.239h-.25m1.393,0-.329,1.147a5.365,5.365,0,0,1,1.047-.277c.107-.4.247-.87.247-.87Zm-.481,1.685-.33,1.2a3.587,3.587,0,0,1,1.051-.333c.123-.464.247-.869.247-.869h-.968Zm.242,2.554.247-.872h-.964l-.249.872Zm3.123-5.193H97.9l.052.448c-.008.114.06.168.2.168h.215l-.217.759H97.26c-.341.018-.516-.113-.532-.394Zm-.356,1.628h3.932l-.231.815H98.779l-.215.757h1.251l-.232.813H98.19l-.315.477h.682l.157.954c.019.095.1.141.247.141h.212l-.222.786H98.2c-.388.019-.589-.111-.606-.392l-.181-.872-.62.927a.672.672,0,0,1-.676.365H94.973l.223-.786h.357a.477.477,0,0,0,.379-.2l.971-1.4H95.651l.232-.813h1.358l.216-.757H96.1l.232-.815m-20.7-7.241h.955l-.109.557.137-.159a1.486,1.486,0,0,1,1.13-.5,1.035,1.035,0,0,1,.874.352,1.17,1.17,0,0,1,.143.976l-.526,2.626h-.982l.475-2.38a.759.759,0,0,0-.04-.547.463.463,0,0,0-.423-.176.918.918,0,0,0-.638.235,1.166,1.166,0,0,0-.345.654l-.438,2.214H74.86l.771-3.856m10.953,0h.956l-.109.557.135-.159a1.489,1.489,0,0,1,1.13-.5,1.031,1.031,0,0,1,.873.352,1.167,1.167,0,0,1,.143.976l-.524,2.626h-.983l.475-2.38a.764.764,0,0,0-.04-.547.466.466,0,0,0-.422-.176.925.925,0,0,0-.64.235,1.152,1.152,0,0,0-.343.654l-.44,2.214h-.982l.77-3.856m4.725-2.39h2.775a1.875,1.875,0,0,1,1.23.358,1.284,1.284,0,0,1,.424,1.035v.014c0,.085-.006.182-.014.286s-.032.212-.054.316a2.441,2.441,0,0,1-.844,1.435,2.388,2.388,0,0,1-1.561.543H91.776l-.46,2.258H90.027l1.282-6.245m.694,2.9h1.234A1.2,1.2,0,0,0,94,53a1.163,1.163,0,0,0,.374-.687c.011-.057.018-.109.026-.156s.009-.09.009-.133a.529.529,0,0,0-.236-.482,1.408,1.408,0,0,0-.747-.151H92.379L92,53.223m9.5,4.089a6.076,6.076,0,0,1-1.024,1.606,2.073,2.073,0,0,1-1.769.732l.094-.661c.916-.282,1.412-1.555,1.694-2.118l-.337-4.149.709-.009h.595l.064,2.6,1.114-2.6h1.128l-2.269,4.6M98.35,53.026l-.448.308a1.408,1.408,0,0,0-1.721-.21c-1.124.521-2.064,4.52,1.032,3.2l.176.209,1.218.031.8-3.633-1.056.092m-.693,1.986c-.2.577-.632.959-.975.85s-.464-.663-.266-1.241.635-.959.975-.85.466.663.266,1.241" transform="translate(-63.624 -42.607)" fill="#fff"/>
      </g>
    </g>
    <g id="Group_106" data-name="Group 106">
      <rect id="Rectangle_94" data-name="Rectangle 94" width="87" height="49" rx="5" transform="translate(1512 4843)" fill="#2d355d"/>
      <g id="american-express-1" transform="translate(1544.059 4856.059)">
        <path id="Path_138" data-name="Path 138" d="M0,0H22.9V22.9H0Z" fill="#fff" fill-rule="evenodd"/>
        <path id="Path_139" data-name="Path 139" d="M4.594,32.919H4.529c0-.033-.016-.082-.016-.1s0-.049-.049-.049h-.1v.147H4.316v-.344h.148c.066,0,.115.017.115.082a.1.1,0,0,1-.033.082.086.086,0,0,1,.033.066v.065c0,.017,0,.017.016.017v.033Zm-.065-.246c0-.049-.033-.049-.049-.049H4.365v.1h.1C4.5,32.722,4.529,32.706,4.529,32.673Zm.279.065a.368.368,0,0,0-.377-.361.364.364,0,0,0-.361.361.369.369,0,1,0,.737,0Zm-.049,0a.315.315,0,0,1-.328.311.3.3,0,0,1-.311-.311.311.311,0,0,1,.311-.311A.326.326,0,0,1,4.758,32.739Zm20.19-6.621c0,.492-.311.721-.869.721H23.014v-.492h1.065a.34.34,0,0,0,.213-.049.209.209,0,0,0,.065-.148.25.25,0,0,0-.065-.164.284.284,0,0,0-.2-.049c-.508-.017-1.147.016-1.147-.7a.691.691,0,0,1,.787-.688h1.1v.492H23.817a.389.389,0,0,0-.213.033.235.235,0,0,0-.082.18.179.179,0,0,0,.115.164.838.838,0,0,0,.213.033h.295a.93.93,0,0,1,.639.18A.708.708,0,0,1,24.948,26.118Zm-2.311-.492a.93.93,0,0,0-.639-.18H21.7a.84.84,0,0,1-.213-.033.178.178,0,0,1-.115-.164.192.192,0,0,1,.082-.18.388.388,0,0,1,.213-.033h1.016v-.492h-1.1c-.59,0-.787.361-.787.688,0,.721.639.688,1.147.7a.284.284,0,0,1,.2.049.25.25,0,0,1,.066.164.208.208,0,0,1-.066.148.373.373,0,0,1-.213.049H20.867v.492h1.065c.557,0,.869-.229.869-.721a.707.707,0,0,0-.164-.492Zm-2.1.737H19.245V25.9h1.262v-.459H19.245V25.02H20.54v-.475H18.7v2.294H20.54v-.475Zm-2.425-1.7a1.375,1.375,0,0,0-.672-.115H16.181v2.294h.557V26h.59c.2,0,.311.017.393.1a.731.731,0,0,1,.1.459v.278h.541V26.4a.756.756,0,0,0-.082-.426.639.639,0,0,0-.278-.2.631.631,0,0,0,.393-.606A.514.514,0,0,0,18.114,24.66ZM15,24.545H13.247l-.7.754-.672-.754H9.658v2.294h2.18l.7-.754.672.754H14.28v-.77h.688c.475,0,.951-.131.951-.77,0-.623-.492-.754-.918-.754Zm2.671.951a.681.681,0,0,1-.262.033l-.672.017V25.02h.672a.444.444,0,0,1,.262.049.208.208,0,0,1,.115.2A.286.286,0,0,1,17.672,25.5ZM15,25.61H14.28v-.59H15c.2,0,.328.082.328.279A.3.3,0,0,1,15,25.61Zm-2.114.082.852-.9v1.852Zm-1.327.672H10.2V25.9h1.213v-.459H10.2V25.02h1.377l.606.672-.623.672Zm11.865-3.474h-.787L21.6,21.169v1.721H20.491l-.213-.508H19.13l-.213.508h-.639a1.185,1.185,0,0,1-.8-.262,1.2,1.2,0,0,1-.279-.869,1.184,1.184,0,0,1,.295-.9,1.112,1.112,0,0,1,.836-.262h.524v.492h-.524a.579.579,0,0,0-.426.131.743.743,0,0,0-.148.524.82.82,0,0,0,.148.541.547.547,0,0,0,.377.115h.246l.787-1.8h.819l.918,2.163V20.6H21.9l.967,1.59V20.6h.557v2.294h0ZM16.918,20.6h-.557v2.294h.557V20.6Zm-1.164.1a1.319,1.319,0,0,0-.655-.1H13.837v2.294h.541v-.836h.59a.562.562,0,0,1,.41.1.7.7,0,0,1,.082.443v.295h.557v-.459a.612.612,0,0,0-.1-.41.686.686,0,0,0-.262-.2.651.651,0,0,0,.393-.606.568.568,0,0,0-.295-.524Zm-2.311,1.721H12.165v-.459h1.262V21.48H12.165v-.41h1.278V20.6H11.608V22.89h1.835v-.475ZM11.2,20.6h-.9l-.672,1.557L8.9,20.6H8.019v2.163L7.085,20.6H6.266l-.983,2.294h.59l.213-.508H7.233l.213.508H8.56v-1.8l.8,1.8h.475l.8-1.8v1.8H11.2V20.6h0Zm8.882,1.295-.377-.9-.377.9Zm-4.752-.36a.5.5,0,0,1-.279.049h-.672v-.508h.672a.724.724,0,0,1,.279.033.244.244,0,0,1,.1.213A.226.226,0,0,1,15.328,21.529Zm-9.046.36.377-.9.377.9ZM24.817,13.4H5.266V21.66l.672-1.524H7.364l.2.377v-.377H9.232l.377.819.361-.819H15.3a.969.969,0,0,1,.623.18v-.18h1.458v.18a1.952,1.952,0,0,1,.918-.18h2.114l.2.377v-.377h1.557l.23.377v-.377h1.524v3.212h-1.54l-.295-.492v.492H20.163l-.213-.524h-.475l-.213.524h-1a1.964,1.964,0,0,1-.885-.2v.2H15v-.737c0-.1-.016-.115-.082-.115h-.082v.852H10.248v-.41l-.164.41H9.117l-.164-.393v.393H7.1l-.2-.524H6.43l-.213.524H5.266v9.685H24.817V27.15a2.006,2.006,0,0,1-.8.148H22.588v-.2a1.264,1.264,0,0,1-.737.2H17.36V26.56c0-.1-.016-.1-.1-.1H17.18V27.3H15.705v-.869a1.8,1.8,0,0,1-.77.115h-.164V27.3h-1.8l-.426-.492-.475.492h-2.9V24.086h2.95l.426.491L13,24.086h1.983a1.236,1.236,0,0,1,.77.2v-.2h1.77a1.4,1.4,0,0,1,.754.2v-.2h2.671v.2a1.09,1.09,0,0,1,.672-.2h1.491v.2a1.185,1.185,0,0,1,.688-.2h1.016Z" transform="translate(-3.587 -11.809)" fill="#93a5ff" fill-rule="evenodd"/>
      </g>
    </g>
  </g>
</svg>
